%TF.GenerationSoftware,KiCad,Pcbnew,10.0.5*%
%TF.CreationDate,2026-09-30T20:36:38+02:00*%
%TF.ProjectId,LongTimekeeper_Bottom,4c6f6e67-5469-46d6-956b-65657065725f,rev?*%
%TF.SameCoordinates,Original*%
%TF.FileFunction,Soldermask,Top*%
%TF.FilePolarity,Negative*%
%FSLAX46Y46*%
G04 Gerber Fmt 4.6, Leading zero omitted, Abs format (unit mm)*
G04 Created by KiCad (PCBNEW 10.0.5) date 2026-09-30 20:36:38*
%MOMM*%
%LPD*%
G01*
G04 APERTURE LIST*
G04 Aperture macros list*
%AMRoundRect*
0 Rectangle with rounded corners*
0 $1 Rounding radius*
0 $2 $3 $4 $5 $6 $7 $8 $9 X,Y pos of 4 corners*
0 Add a 4 corners polygon primitive as box body*
4,1,4,$2,$3,$4,$5,$6,$7,$8,$9,$2,$3,0*
0 Add four circle primitives for the rounded corners*
1,1,$1+$1,$2,$3*
1,1,$1+$1,$4,$5*
1,1,$1+$1,$6,$7*
1,1,$1+$1,$8,$9*
0 Add four rect primitives between the rounded corners*
20,1,$1+$1,$2,$3,$4,$5,0*
20,1,$1+$1,$4,$5,$6,$7,0*
20,1,$1+$1,$6,$7,$8,$9,0*
20,1,$1+$1,$8,$9,$2,$3,0*%
G04 Aperture macros list end*
%ADD10C,1.800000*%
%ADD11RoundRect,0.250000X0.250000X0.650000X-0.250000X0.650000X-0.250000X-0.650000X0.250000X-0.650000X0*%
%ADD12RoundRect,0.150000X-0.875000X-0.150000X0.875000X-0.150000X0.875000X0.150000X-0.875000X0.150000X0*%
%ADD13C,1.600000*%
%ADD14O,1.600000X1.600000*%
G04 APERTURE END LIST*
D10*
%TO.C,BT1*%
X108810000Y-73240000D03*
X101190000Y-42760000D03*
X101190000Y-73240000D03*
X108810000Y-42760000D03*
%TD*%
D11*
%TO.C,Y1*%
X103750001Y-46316000D03*
X106249999Y-46316000D03*
%TD*%
D12*
%TO.C,U7*%
X99819999Y-49745000D03*
X99820000Y-51015000D03*
X99820000Y-52285000D03*
X99820000Y-53554999D03*
X99820000Y-54825000D03*
X99819999Y-56095000D03*
X99820000Y-57365000D03*
X99820000Y-58635000D03*
X99819999Y-59905000D03*
X99820000Y-61175000D03*
X99820000Y-62445001D03*
X99820000Y-63715000D03*
X99820000Y-64985000D03*
X99819999Y-66255000D03*
X110180001Y-66255000D03*
X110180000Y-64985000D03*
X110180000Y-63715000D03*
X110180000Y-62445001D03*
X110180000Y-61175000D03*
X110180001Y-59905000D03*
X110180000Y-58635000D03*
X110180000Y-57365000D03*
X110180001Y-56095000D03*
X110180000Y-54825000D03*
X110180000Y-53554999D03*
X110180000Y-52285000D03*
X110180000Y-51015000D03*
X110180001Y-49745000D03*
D13*
X103298250Y-50126000D03*
X106701750Y-50126000D03*
X106701750Y-65874000D03*
X103298250Y-65874000D03*
%TD*%
%TO.C,U2*%
X97380000Y-41490000D03*
D14*
X97380000Y-44030000D03*
X97380000Y-46570000D03*
X97380000Y-49110000D03*
X97380000Y-51650000D03*
X97380000Y-54190000D03*
X97380000Y-56730000D03*
X97380000Y-59270000D03*
X97380000Y-61810000D03*
X97380000Y-64350000D03*
X97380000Y-66890000D03*
X97380000Y-69430000D03*
X97380000Y-71970000D03*
X97380000Y-74510000D03*
X112620000Y-74510000D03*
X112620000Y-71970000D03*
X112620000Y-69430000D03*
X112620000Y-66890000D03*
X112620000Y-64350000D03*
X112620000Y-61810000D03*
X112620000Y-59270000D03*
X112620000Y-56730000D03*
X112620000Y-54190000D03*
X112620000Y-51650000D03*
X112620000Y-49110000D03*
X112620000Y-46570000D03*
X112620000Y-44030000D03*
X112620000Y-41490000D03*
%TD*%
M02*
