M48
; DRILL file KiCad 10.0.5 date 2026-09-30T20:36:35
; FORMAT={-:-/ absolute / metric / decimal}
; #@! TF.CreationDate,2026-09-30T20:36:35+02:00
; #@! TF.GenerationSoftware,Kicad,Pcbnew,10.0.5
; #@! TF.FileFunction,Plated,1,2,PTH
FMAT,2
METRIC
; #@! TA.AperFunction,Plated,PTH,ViaDrill
T1C0.250
; #@! TA.AperFunction,Plated,PTH,ComponentDrill
T2C0.800
; #@! TA.AperFunction,Plated,PTH,ComponentDrill
T3C1.000
%
G90
G05
T1
X101.19Y-51.015
X101.19Y-52.285
X101.19Y-53.555
X101.19Y-54.825
X101.19Y-61.175
X101.19Y-62.445
X101.19Y-63.715
X101.19Y-64.985
X108.81Y-51.015
X108.81Y-52.285
X108.81Y-53.555
X108.81Y-54.825
X108.81Y-61.175
X108.81Y-62.445
X108.81Y-63.715
X108.81Y-64.985
T2
X97.38Y-41.49
X97.38Y-44.03
X97.38Y-46.57
X97.38Y-49.11
X97.38Y-51.65
X97.38Y-54.19
X97.38Y-56.73
X97.38Y-59.27
X97.38Y-61.81
X97.38Y-64.35
X97.38Y-66.89
X97.38Y-69.43
X97.38Y-71.97
X97.38Y-74.51
X103.298Y-50.126
X103.298Y-65.874
X106.702Y-50.126
X106.702Y-65.874
X112.62Y-41.49
X112.62Y-44.03
X112.62Y-46.57
X112.62Y-49.11
X112.62Y-51.65
X112.62Y-54.19
X112.62Y-56.73
X112.62Y-59.27
X112.62Y-61.81
X112.62Y-64.35
X112.62Y-66.89
X112.62Y-69.43
X112.62Y-71.97
X112.62Y-74.51
T3
X101.19Y-42.76
X101.19Y-73.24
X108.81Y-42.76
X108.81Y-73.24
M30
